<mxfile host="app.diagrams.net" agent="Mozilla/5.0 (Macintosh; Intel Mac OS X 10_15_7) AppleWebKit/537.36 (KHTML, like Gecko) Chrome/130.0.0.0 Safari/537.36" version="24.8.3">
  <diagram name="Page-1" id="2YBvvXClWsGukQMizWep">
    <mxGraphModel dx="1314" dy="831" grid="1" gridSize="10" guides="1" tooltips="1" connect="1" arrows="1" fold="1" page="1" pageScale="1" pageWidth="850" pageHeight="1100" math="0" shadow="0">
      <root>
        <mxCell id="0" />
        <mxCell id="1" parent="0" />
        <mxCell id="bjVUPFGAhQ7X9oyQEovi-2" value="User" style="shape=umlLifeline;perimeter=lifelinePerimeter;whiteSpace=wrap;container=1;dropTarget=0;collapsible=0;recursiveResize=0;outlineConnect=0;portConstraint=eastwest;newEdgeStyle={&quot;edgeStyle&quot;:&quot;elbowEdgeStyle&quot;,&quot;elbow&quot;:&quot;vertical&quot;,&quot;curved&quot;:0,&quot;rounded&quot;:0};size=65;" vertex="1" parent="1">
          <mxGeometry x="20" y="470" width="150" height="1630" as="geometry" />
        </mxCell>
        <mxCell id="bjVUPFGAhQ7X9oyQEovi-3" value="Emergency" style="shape=umlLifeline;perimeter=lifelinePerimeter;whiteSpace=wrap;container=1;dropTarget=0;collapsible=0;recursiveResize=0;outlineConnect=0;portConstraint=eastwest;newEdgeStyle={&quot;edgeStyle&quot;:&quot;elbowEdgeStyle&quot;,&quot;elbow&quot;:&quot;vertical&quot;,&quot;curved&quot;:0,&quot;rounded&quot;:0};size=65;" vertex="1" parent="1">
          <mxGeometry x="220" y="470" width="150" height="1630" as="geometry" />
        </mxCell>
        <mxCell id="bjVUPFGAhQ7X9oyQEovi-4" value="" style="points=[];perimeter=orthogonalPerimeter;outlineConnect=0;targetShapes=umlLifeline;portConstraint=eastwest;newEdgeStyle={&quot;edgeStyle&quot;:&quot;elbowEdgeStyle&quot;,&quot;elbow&quot;:&quot;vertical&quot;,&quot;curved&quot;:0,&quot;rounded&quot;:0}" vertex="1" parent="bjVUPFGAhQ7X9oyQEovi-3">
          <mxGeometry x="70" y="103" width="10" height="1432" as="geometry" />
        </mxCell>
        <mxCell id="bjVUPFGAhQ7X9oyQEovi-5" value="Firefighting Crew" style="shape=umlLifeline;perimeter=lifelinePerimeter;whiteSpace=wrap;container=1;dropTarget=0;collapsible=0;recursiveResize=0;outlineConnect=0;portConstraint=eastwest;newEdgeStyle={&quot;edgeStyle&quot;:&quot;elbowEdgeStyle&quot;,&quot;elbow&quot;:&quot;vertical&quot;,&quot;curved&quot;:0,&quot;rounded&quot;:0};size=65;" vertex="1" parent="1">
          <mxGeometry x="501" y="470" width="150" height="1630" as="geometry" />
        </mxCell>
        <mxCell id="bjVUPFGAhQ7X9oyQEovi-6" value="" style="points=[];perimeter=orthogonalPerimeter;outlineConnect=0;targetShapes=umlLifeline;portConstraint=eastwest;newEdgeStyle={&quot;edgeStyle&quot;:&quot;elbowEdgeStyle&quot;,&quot;elbow&quot;:&quot;vertical&quot;,&quot;curved&quot;:0,&quot;rounded&quot;:0}" vertex="1" parent="bjVUPFGAhQ7X9oyQEovi-5">
          <mxGeometry x="70" y="388" width="10" height="1137" as="geometry" />
        </mxCell>
        <mxCell id="bjVUPFGAhQ7X9oyQEovi-7" value="Medical Team" style="shape=umlLifeline;perimeter=lifelinePerimeter;whiteSpace=wrap;container=1;dropTarget=0;collapsible=0;recursiveResize=0;outlineConnect=0;portConstraint=eastwest;newEdgeStyle={&quot;edgeStyle&quot;:&quot;elbowEdgeStyle&quot;,&quot;elbow&quot;:&quot;vertical&quot;,&quot;curved&quot;:0,&quot;rounded&quot;:0};size=65;" vertex="1" parent="1">
          <mxGeometry x="701" y="470" width="150" height="1630" as="geometry" />
        </mxCell>
        <mxCell id="bjVUPFGAhQ7X9oyQEovi-8" value="" style="points=[];perimeter=orthogonalPerimeter;outlineConnect=0;targetShapes=umlLifeline;portConstraint=eastwest;newEdgeStyle={&quot;edgeStyle&quot;:&quot;elbowEdgeStyle&quot;,&quot;elbow&quot;:&quot;vertical&quot;,&quot;curved&quot;:0,&quot;rounded&quot;:0}" vertex="1" parent="bjVUPFGAhQ7X9oyQEovi-7">
          <mxGeometry x="70" y="388" width="10" height="1127" as="geometry" />
        </mxCell>
        <mxCell id="bjVUPFGAhQ7X9oyQEovi-9" value="Police" style="shape=umlLifeline;perimeter=lifelinePerimeter;whiteSpace=wrap;container=1;dropTarget=0;collapsible=0;recursiveResize=0;outlineConnect=0;portConstraint=eastwest;newEdgeStyle={&quot;edgeStyle&quot;:&quot;elbowEdgeStyle&quot;,&quot;elbow&quot;:&quot;vertical&quot;,&quot;curved&quot;:0,&quot;rounded&quot;:0};size=65;" vertex="1" parent="1">
          <mxGeometry x="901" y="470" width="150" height="1630" as="geometry" />
        </mxCell>
        <mxCell id="bjVUPFGAhQ7X9oyQEovi-10" value="" style="points=[];perimeter=orthogonalPerimeter;outlineConnect=0;targetShapes=umlLifeline;portConstraint=eastwest;newEdgeStyle={&quot;edgeStyle&quot;:&quot;elbowEdgeStyle&quot;,&quot;elbow&quot;:&quot;vertical&quot;,&quot;curved&quot;:0,&quot;rounded&quot;:0}" vertex="1" parent="bjVUPFGAhQ7X9oyQEovi-9">
          <mxGeometry x="70" y="388" width="10" height="1117" as="geometry" />
        </mxCell>
        <mxCell id="bjVUPFGAhQ7X9oyQEovi-11" value="" style="shape=umlFrame;dashed=1;pointerEvents=0;dropTarget=0;strokeColor=#B3B3B3;height=20;width=30" vertex="1" parent="1">
          <mxGeometry x="440" y="1395" width="660" height="284" as="geometry" />
        </mxCell>
        <mxCell id="bjVUPFGAhQ7X9oyQEovi-12" value="[Parallel Operations]" style="text;strokeColor=none;fillColor=none;align=center;verticalAlign=middle;whiteSpace=wrap;" vertex="1" parent="bjVUPFGAhQ7X9oyQEovi-11">
          <mxGeometry x="-10.476190476190474" width="146.66666666666666" height="20" as="geometry" />
        </mxCell>
        <mxCell id="bjVUPFGAhQ7X9oyQEovi-13" value="Request" style="verticalAlign=bottom;edgeStyle=elbowEdgeStyle;elbow=vertical;curved=0;rounded=0;endArrow=block;" edge="1" parent="1" source="bjVUPFGAhQ7X9oyQEovi-2" target="bjVUPFGAhQ7X9oyQEovi-4">
          <mxGeometry relative="1" as="geometry">
            <Array as="points">
              <mxPoint x="202" y="573" />
            </Array>
          </mxGeometry>
        </mxCell>
        <mxCell id="bjVUPFGAhQ7X9oyQEovi-14" value="Provide information for organisation agent" style="verticalAlign=bottom;edgeStyle=elbowEdgeStyle;elbow=vertical;curved=0;rounded=0;endArrow=block;" edge="1" parent="1" source="bjVUPFGAhQ7X9oyQEovi-4" target="bjVUPFGAhQ7X9oyQEovi-5">
          <mxGeometry relative="1" as="geometry">
            <Array as="points">
              <mxPoint x="446" y="762" />
            </Array>
          </mxGeometry>
        </mxCell>
        <mxCell id="bjVUPFGAhQ7X9oyQEovi-15" value="provide information for organisation agent" style="verticalAlign=bottom;edgeStyle=elbowEdgeStyle;elbow=vertical;curved=0;rounded=0;endArrow=block;" edge="1" parent="1" source="bjVUPFGAhQ7X9oyQEovi-4" target="bjVUPFGAhQ7X9oyQEovi-7">
          <mxGeometry relative="1" as="geometry">
            <Array as="points">
              <mxPoint x="546" y="810" />
            </Array>
          </mxGeometry>
        </mxCell>
        <mxCell id="bjVUPFGAhQ7X9oyQEovi-16" value="provide information for organisation agent" style="verticalAlign=bottom;edgeStyle=elbowEdgeStyle;elbow=vertical;curved=0;rounded=0;endArrow=block;" edge="1" parent="1" source="bjVUPFGAhQ7X9oyQEovi-4" target="bjVUPFGAhQ7X9oyQEovi-10">
          <mxGeometry relative="1" as="geometry">
            <Array as="points">
              <mxPoint x="646" y="858" />
            </Array>
          </mxGeometry>
        </mxCell>
        <mxCell id="bjVUPFGAhQ7X9oyQEovi-17" value="Status: En route" style="verticalAlign=bottom;edgeStyle=elbowEdgeStyle;elbow=vertical;curved=0;rounded=0;dashed=1;dashPattern=2 3;endArrow=block;" edge="1" parent="1" source="bjVUPFGAhQ7X9oyQEovi-6" target="bjVUPFGAhQ7X9oyQEovi-4">
          <mxGeometry relative="1" as="geometry">
            <Array as="points">
              <mxPoint x="447" y="1163" />
            </Array>
          </mxGeometry>
        </mxCell>
        <mxCell id="bjVUPFGAhQ7X9oyQEovi-18" value="Status: En route" style="verticalAlign=bottom;edgeStyle=elbowEdgeStyle;elbow=vertical;curved=0;rounded=0;dashed=1;dashPattern=2 3;endArrow=block;" edge="1" parent="1" source="bjVUPFGAhQ7X9oyQEovi-8" target="bjVUPFGAhQ7X9oyQEovi-4">
          <mxGeometry relative="1" as="geometry">
            <Array as="points">
              <mxPoint x="547" y="1211" />
            </Array>
          </mxGeometry>
        </mxCell>
        <mxCell id="bjVUPFGAhQ7X9oyQEovi-19" value="Status: En route" style="verticalAlign=bottom;edgeStyle=elbowEdgeStyle;elbow=vertical;curved=0;rounded=0;dashed=1;dashPattern=2 3;endArrow=block;" edge="1" parent="1" source="bjVUPFGAhQ7X9oyQEovi-10" target="bjVUPFGAhQ7X9oyQEovi-4">
          <mxGeometry relative="1" as="geometry">
            <Array as="points">
              <mxPoint x="647" y="1259" />
            </Array>
          </mxGeometry>
        </mxCell>
        <mxCell id="bjVUPFGAhQ7X9oyQEovi-21" value="Report &quot;Fire out&quot;" style="verticalAlign=bottom;edgeStyle=elbowEdgeStyle;elbow=vertical;curved=0;rounded=0;endArrow=block;" edge="1" parent="1" source="bjVUPFGAhQ7X9oyQEovi-6" target="bjVUPFGAhQ7X9oyQEovi-4">
          <mxGeometry relative="1" as="geometry">
            <Array as="points">
              <mxPoint x="447" y="1784" />
            </Array>
          </mxGeometry>
        </mxCell>
        <mxCell id="bjVUPFGAhQ7X9oyQEovi-22" value="Operation complete" style="verticalAlign=bottom;edgeStyle=elbowEdgeStyle;elbow=vertical;curved=0;rounded=0;endArrow=block;" edge="1" parent="1" source="bjVUPFGAhQ7X9oyQEovi-6" target="bjVUPFGAhQ7X9oyQEovi-4">
          <mxGeometry relative="1" as="geometry">
            <Array as="points">
              <mxPoint x="447" y="1899" />
            </Array>
          </mxGeometry>
        </mxCell>
        <mxCell id="bjVUPFGAhQ7X9oyQEovi-23" value="Operation complete" style="verticalAlign=bottom;edgeStyle=elbowEdgeStyle;elbow=vertical;curved=0;rounded=0;endArrow=block;" edge="1" parent="1" source="bjVUPFGAhQ7X9oyQEovi-8" target="bjVUPFGAhQ7X9oyQEovi-4">
          <mxGeometry relative="1" as="geometry">
            <Array as="points">
              <mxPoint x="547" y="1947" />
            </Array>
          </mxGeometry>
        </mxCell>
        <mxCell id="bjVUPFGAhQ7X9oyQEovi-24" value="Operation complete" style="verticalAlign=bottom;edgeStyle=elbowEdgeStyle;elbow=vertical;curved=0;rounded=0;endArrow=block;" edge="1" parent="1" source="bjVUPFGAhQ7X9oyQEovi-9" target="bjVUPFGAhQ7X9oyQEovi-4">
          <mxGeometry relative="1" as="geometry">
            <Array as="points">
              <mxPoint x="647" y="1995" />
            </Array>
          </mxGeometry>
        </mxCell>
        <mxCell id="bjVUPFGAhQ7X9oyQEovi-25" value="&lt;font style=&quot;font-size: 10px;&quot;&gt;&lt;b&gt;Information in Markdown format including:&lt;/b&gt;&lt;/font&gt;&lt;div&gt;&lt;font style=&quot;font-size: 10px;&quot;&gt;- Fire type: ordinary, electrical , gas, etc.&lt;br&gt;- X-location: X coordinate where the fire has originated&lt;br&gt;- Y-location: Y coordinate where the fire has originated&lt;br&gt;- Injured people: how many people has been injured due to the fire&lt;br&gt;- Fire severity: the severity of the fire, which can be low, medium or high&lt;br&gt;&lt;/font&gt;&lt;/div&gt;" style="fillColor=#ffff88;strokeColor=#9E916F;align=left;verticalAlign=middle;whiteSpace=wrap;html=1;" vertex="1" parent="1">
          <mxGeometry x="168" y="593" width="255" height="141" as="geometry" />
        </mxCell>
        <mxCell id="bjVUPFGAhQ7X9oyQEovi-26" value="&lt;div&gt;&lt;span style=&quot;background-color: initial;&quot;&gt;- Organisation agent creates strict, optimal plan regarding fire characteristics&lt;/span&gt;&lt;/div&gt;&lt;div&gt;- Actuator agents follow the plan and drive to the site to fight the fire&lt;/div&gt;" style="fillColor=#ffff88;strokeColor=#9E916F;fontSize=10;align=left;whiteSpace=wrap;html=1;" vertex="1" parent="1">
          <mxGeometry x="480.5" y="878" width="191" height="62" as="geometry" />
        </mxCell>
        <mxCell id="bjVUPFGAhQ7X9oyQEovi-27" value="- Organisation agent creates strict, optimal plan regarding number of people injured, location of nearest ambulance/hospital, other characteristics&lt;br style=&quot;font-size: 10px;&quot;&gt;- Actuator agents follow the plan and drive to the site to do primary care and pick up injured people" style="fillColor=#ffff88;strokeColor=#9E916F;whiteSpace=wrap;html=1;fontSize=10;align=left;" vertex="1" parent="1">
          <mxGeometry x="655.75" y="960" width="240.5" height="80" as="geometry" />
        </mxCell>
        <mxCell id="bjVUPFGAhQ7X9oyQEovi-28" value="- Organisation agent creates strict, optimal plan regarding nearest patrol car and available units&lt;br style=&quot;font-size: 10px;&quot;&gt;- Actuator agents follow the plan and drive to the site to manage the traffic and evacuation" style="fillColor=#ffff88;strokeColor=#9E916F;whiteSpace=wrap;html=1;fontSize=10;align=left;" vertex="1" parent="1">
          <mxGeometry x="861.5" y="1050" width="230" height="72" as="geometry" />
        </mxCell>
        <mxCell id="bjVUPFGAhQ7X9oyQEovi-29" value="- Actuator agents inform organisation agents about local situation&lt;div&gt;- Organisation agents might adapt the plan&lt;/div&gt;" style="fillColor=#ffff88;strokeColor=#9E916F;fontSize=10;whiteSpace=wrap;html=1;align=left;" vertex="1" parent="1">
          <mxGeometry x="469" y="1279" width="215" height="49" as="geometry" />
        </mxCell>
        <mxCell id="bjVUPFGAhQ7X9oyQEovi-30" value="&lt;div&gt;- Firefighter Actuator Agents&amp;nbsp;fight the fire&lt;/div&gt;&lt;div&gt;-&amp;nbsp;&lt;span style=&quot;background-color: initial;&quot;&gt;Rescue Actuator Agents rescue people&lt;/span&gt;&lt;/div&gt;" style="fillColor=#ffff88;strokeColor=#9E916F;whiteSpace=wrap;html=1;align=left;fontSize=10;" vertex="1" parent="1">
          <mxGeometry x="482.5" y="1440" width="187" height="40" as="geometry" />
        </mxCell>
        <mxCell id="bjVUPFGAhQ7X9oyQEovi-33" value="All actuator agents coordinate themselves during those operations" style="fillColor=#ffff88;strokeColor=#9E916F;fontSize=10;" vertex="1" parent="1">
          <mxGeometry x="545" y="1689" width="450" height="31" as="geometry" />
        </mxCell>
        <mxCell id="bjVUPFGAhQ7X9oyQEovi-34" value="- Actuator agents check the site finally" style="fillColor=#ffff88;strokeColor=#9E916F;align=left;fontSize=10;whiteSpace=wrap;html=1;" vertex="1" parent="1">
          <mxGeometry x="501" y="1804" width="150" height="46" as="geometry" />
        </mxCell>
        <mxCell id="bjVUPFGAhQ7X9oyQEovi-35" value="- Med Actuator Agents provide first aid for injured people&lt;div&gt;-&amp;nbsp;&lt;span style=&quot;background-color: initial;&quot;&gt;Driver Actuator Agents drive injured people to nearby hospital&lt;/span&gt;&lt;/div&gt;" style="fillColor=#ffff88;strokeColor=#9E916F;whiteSpace=wrap;html=1;align=left;fontSize=10;" vertex="1" parent="1">
          <mxGeometry x="631.75" y="1512" width="288.5" height="50" as="geometry" />
        </mxCell>
        <mxCell id="bjVUPFGAhQ7X9oyQEovi-36" value="- Patrol Actuator Agents manage traffic on the emergency site and evacuate people" style="fillColor=#ffff88;strokeColor=#9E916F;whiteSpace=wrap;html=1;align=left;fontSize=10;" vertex="1" parent="1">
          <mxGeometry x="862.13" y="1580" width="227.75" height="50" as="geometry" />
        </mxCell>
      </root>
    </mxGraphModel>
  </diagram>
</mxfile>
